<svg 
  xmlns="http://www.w3.org/2000/svg"
  viewBox="0 0 1000 1000"
  width="50"
	height="50"
	fill="#e9d252"
>
  <path d="M688.6 566.9l-76.4-19.1c32.2-28.6 58.5-68 76-111.1 24.6-5.4 47.2-26 50.9-71.1 3.5-42.5-9.5-61.5-26.9-69.7-.2-5.1-.4-10-.7-14.9 22.4-124.2-66.3-167.6-73.2-169.7-11.6-17.6-89.9-124.4-232-37.7-20.9 12.7-53.9 37.7-71.5 62.9-21.2 26.6-36.6 65.2-43 120.8-4.4.5-8.7 1.2-13 2.1-1.2-27.3.3-107.9 51.4-165.2 37.8-42.3 95.1-63.8 170.3-63.8 75.3 0 133.9 21.6 173.9 64.3 65.7 70.1 59.8 174.7 59.7 175.8-.4 5.6 3.9 10.5 9.5 10.8h.7c5.3 0 9.7-4.1 10.2-9.5.3-4.6 6.6-114.2-65.1-190.9-44-47-107.6-70.9-188.8-70.9-81.4 0-143.9 23.8-185.7 70.8-61.1 68.7-57.8 163.7-56.1 185.8-23.8 12.7-41 40.4-36.1 99.6 6.4 78.1 51.8 105.3 94.6 105.3 8.3 0 15.7-1.8 22.2-5.1 24.5 15.9 63.9 29.7 127 32.2 6.2 9.3 19.2 15.7 34.2 15.7 21 0 38-12.5 38-28s-17-28-38-28c-17.1 0-31.6 8.3-36.4 19.7-41.4-2-71.1-9-92.2-17.9-28.9-38.9-42.6-104.9-42.6-142.6 0-13.9.4-26.9 1.2-39 133.7 4.5 213.2-49.6 256.6-96.5 55.9 55.7 75.8 131.2 82.5 167.2-13 98.9-83.5 203.9-169.1 203.9-36.9 0-70.9-19.4-98.8-49.4-28.5-5.9-52.2-15.2-71-27.8 15.4 27.5 34.5 52.1 56.5 71.6L311 566.9c-104.5 26.2-177 119.6-177 227.3v128.9c0 36.6 28.8 66.9 65.4 66.9h600.4c36.6 0 66.3-30.3 66.3-66.9V794.2c-.1-107.7-73-201.2-177.5-227.3zM657 601l-99.4 68-30.3-77.4c13.7-2.6 26.9-7.1 39.6-13.2L657 601zm-224.1-22.7c12.5 6 25.5 10.4 39.1 13L441.5 669l-99.4-68 90.8-22.7zm-22.1 369.8H296.4V894c0-5.6-4.5-10.2-10.1-10.2s-10.1 4.6-10.1 10.2v54.1h-76.7c-14.1 0-24.7-10.9-24.7-25V794.2c0-87.4 57.7-163.4 141.5-186.6l125.5 86c1.3 13.2 12.2 23.9 26.2 24.3l-57.2 230.2zm72.6-329.8l9.5-24.5c2.6.2 11.6.2 13.5.1l9.5 24.4h-32.5zm342 304.8c0 14.1-11.6 25-25.7 25h-77.1V894c0-5.7-4.5-10.2-10.1-10.2-5.7 0-10.2 4.6-10.2 10.2v54.1H588.1L531 718c13.9-.4 24.8-11 26.3-24l126.1-86.3c83.8 23.1 142 99.2 142 186.5v128.9z"/>
</svg>