<?xml version="1.0" encoding="utf-8"?>
<!-- Generator: Adobe Illustrator 24.1.1, SVG Export Plug-In . SVG Version: 6.00 Build 0)  -->
<svg version="1.1" id="Слой_1" xmlns="http://www.w3.org/2000/svg" xmlns:xlink="http://www.w3.org/1999/xlink" x="0px" y="0px"
	 viewBox="0 0 145 47" style="enable-background:new 0 0 145 47;" xml:space="preserve">
<style type="text/css">
	.st0{fill:#606060;}
	.st1{enable-background:new    ;}
</style>
<g id="Logo" transform="translate(0 -10)">
	<g id="svg" transform="translate(0 10)">
		<g id="Слой_1_1_">
			<g id="Group_1">
				<path id="Path_1" class="st0" d="M33.6,22.4h7.8v17.8c-4.6,3.8-11.1,5.7-17.4,5.7c-13.8,0-24-9.6-24-22.9S10.2,0,24.1,0
					C31.6,0,37.8,2.5,42,7.3l-5.2,5.1C33.6,9,29.1,7.2,24.5,7.3C15,7.3,8.3,13.7,8.3,22.9c0,9,6.7,15.7,16.1,15.7
					c3.2,0.1,6.4-0.7,9.2-2.3L33.6,22.4z"/>
			</g>
			<g id="Group_2" transform="translate(11.987 3.427)">
				<path id="Path_2" class="st0" d="M0,0h8.3v22.8h14v6.6H0V0z"/>
			</g>
		</g>
	</g>
	<g class="st1">
		<path class="st0" d="M58.9,23h3.9v6.4c-1.8,1.3-4.2,2-6.5,2c-4.9,0-8.5-3.3-8.5-8s3.6-8,8.6-8c2.9,0,5.2,1,6.7,2.8l-2.8,2.5
			c-1.1-1.2-2.3-1.7-3.7-1.7c-2.6,0-4.4,1.7-4.4,4.4c0,2.6,1.8,4.4,4.4,4.4c0.8,0,1.6-0.2,2.4-0.5V23z"/>
		<path class="st0" d="M65.9,14.7h4.2V31h-4.2V14.7z"/>
		<path class="st0" d="M72.7,25c0-3.6,2.8-6.1,6.7-6.1c3.9,0,6.7,2.6,6.7,6.1c0,3.6-2.8,6.2-6.7,6.2C75.5,31.2,72.7,28.6,72.7,25z
			 M81.9,25c0-1.8-1.1-2.8-2.5-2.8c-1.4,0-2.5,1-2.5,2.8c0,1.8,1.1,2.9,2.5,2.9C80.9,27.9,81.9,26.8,81.9,25z"/>
		<path class="st0" d="M96.7,18.9v3.8c-0.4,0-0.6-0.1-0.9-0.1c-1.7,0-2.9,0.9-2.9,2.9V31h-4.2V19.1h4v1.4
			C93.6,19.4,95,18.9,96.7,18.9z"/>
		<path class="st0" d="M98.6,15.5c0-1.3,1-2.2,2.6-2.2c1.5,0,2.6,0.9,2.6,2.2c0,1.3-1,2.3-2.6,2.3C99.6,17.8,98.6,16.8,98.6,15.5z
			 M99.1,19.1h4.2V31h-4.2V19.1z"/>
		<path class="st0" d="M117.8,24.4V31h-3.9v-1.5c-0.6,1.1-1.8,1.7-3.5,1.7c-2.9,0-4.4-1.6-4.4-3.7c0-2.2,1.6-3.6,5.3-3.6h2.4
			c-0.1-1.2-0.9-1.9-2.5-1.9c-1.1,0-2.4,0.4-3.2,1l-1.4-2.8c1.4-0.9,3.4-1.4,5.3-1.4C115.6,18.9,117.8,20.6,117.8,24.4z M113.6,27.2
			v-1h-1.8c-1.3,0-1.8,0.5-1.8,1.2c0,0.7,0.6,1.2,1.6,1.2C112.4,28.6,113.3,28.1,113.6,27.2z"/>
	</g>
	<g class="st1">
		<path class="st0" d="M48.5,35.6h4.4v11.9h7.3V51H48.5V35.6z"/>
		<path class="st0" d="M61.6,45c0-3.6,2.8-6.1,6.7-6.1c3.9,0,6.7,2.6,6.7,6.1c0,3.6-2.8,6.2-6.7,6.2C64.4,51.2,61.6,48.6,61.6,45z
			 M70.8,45c0-1.8-1.1-2.8-2.5-2.8c-1.4,0-2.5,1-2.5,2.8c0,1.8,1.1,2.9,2.5,2.9C69.8,47.9,70.8,46.8,70.8,45z"/>
		<path class="st0" d="M90.5,39.1v9.7c0,4.5-2.6,6.6-7,6.6c-2.3,0-4.5-0.5-5.9-1.6l1.5-2.9c1,0.8,2.6,1.3,4,1.3c2.2,0,3.2-1,3.2-2.9
			V49c-0.8,0.9-2,1.4-3.5,1.4c-3.2,0-5.9-2.2-5.9-5.8c0-3.5,2.7-5.7,5.9-5.7c1.7,0,2.9,0.5,3.7,1.7v-1.5H90.5z M86.3,44.6
			c0-1.5-1.1-2.4-2.6-2.4s-2.6,1-2.6,2.4s1.1,2.4,2.6,2.4S86.3,46.1,86.3,44.6z"/>
		<path class="st0" d="M93.3,35.5c0-1.3,1-2.2,2.6-2.2s2.6,0.9,2.6,2.2c0,1.3-1,2.3-2.6,2.3S93.3,36.8,93.3,35.5z M93.8,39.1H98V51
			h-4.2V39.1z"/>
		<path class="st0" d="M100.4,50l1.3-2.9c1.1,0.7,2.7,1.1,4.2,1.1c1.4,0,1.9-0.3,1.9-0.8c0-1.6-7,0.2-7-4.6c0-2.2,2.1-4,5.8-4
			c1.7,0,3.5,0.4,4.7,1l-1.3,2.8c-1.2-0.7-2.4-0.9-3.4-0.9c-1.4,0-1.9,0.4-1.9,0.8c0,1.7,7-0.1,7,4.6c0,2.2-2,3.9-5.9,3.9
			C103.6,51.2,101.5,50.7,100.4,50z"/>
		<path class="st0" d="M122.2,50.5c-0.7,0.5-1.8,0.7-2.9,0.7c-3.1,0-4.8-1.5-4.8-4.6v-4h-1.7v-3.1h1.7v-3.1h4.2v3.1h2.7v3.1h-2.7v4
			c0,0.9,0.5,1.4,1.3,1.4c0.5,0,0.9-0.1,1.3-0.4L122.2,50.5z"/>
		<path class="st0" d="M124,35.5c0-1.3,1-2.2,2.6-2.2c1.5,0,2.6,0.9,2.6,2.2c0,1.3-1,2.3-2.6,2.3C125,37.8,124,36.8,124,35.5z
			 M124.5,39.1h4.2V51h-4.2V39.1z"/>
		<path class="st0" d="M131.2,45c0-3.6,2.8-6.1,6.8-6.1c2.7,0,4.8,1.2,5.6,3.3l-3.2,1.7c-0.6-1.1-1.4-1.6-2.4-1.6
			c-1.5,0-2.6,1-2.6,2.8c0,1.8,1.1,2.9,2.6,2.9c1,0,1.8-0.5,2.4-1.6l3.2,1.7c-0.8,2.1-2.9,3.3-5.6,3.3
			C134.1,51.2,131.2,48.6,131.2,45z"/>
	</g>
</g>
</svg>
