<svg version="1.0" xmlns="http://www.w3.org/2000/svg" viewBox="0 0 1280 959" width="10" height="10"><path d="M1224.3 1.5c-2.9.8-7 2.3-9.1 3.4C1213 6 1032 126.4 812.7 272.4 593.5 418.5 413.6 538.2 412.8 538.5c-.7.2-78.2-57.4-172.3-128.2C129.1 326.5 67.3 280.7 63.2 278.7c-5.1-2.4-8.1-3.1-15.3-3.5-10.1-.5-15.5.6-24.1 5.1C4 290.6-5.1 315.4 3.3 335.8 4.6 339 80.5 463 172 611.5 263.4 760 346.4 894.8 356.4 911c11.8 19.3 19.9 31.3 23.2 34.7 14.4 14.6 36.8 17.2 55.1 6.5 3.1-1.8 65.8-67.2 195.1-203.7 104.9-110.6 207.3-218.6 227.7-240 62.6-66 394.7-416.5 407.8-430.4 15-15.9 18.5-34.6 10-52.8-3.3-7-12.9-16.9-19.6-20.2-10.5-5.1-21.3-6.3-31.4-3.6z"/></svg>